<mxfile host="app.diagrams.net" modified="2024-04-08T06:30:31.731Z" agent="Mozilla/5.0 (Windows NT 10.0; Win64; x64) AppleWebKit/537.36 (KHTML, like Gecko) Chrome/122.0.0.0 Safari/537.36" etag="Rmwih4btmPV_u7l9YJHr" version="24.2.1" type="github">
  <diagram name="Page-1" id="74b105a0-9070-1c63-61bc-23e55f88626e">
    <mxGraphModel dx="1050" dy="530" grid="1" gridSize="10" guides="1" tooltips="1" connect="1" arrows="1" fold="1" page="1" pageScale="1.5" pageWidth="1169" pageHeight="826" background="none" math="0" shadow="0">
      <root>
        <mxCell id="0" style=";html=1;" />
        <mxCell id="1" style=";html=1;" parent="0" />
        <mxCell id="Ga8FxlPgCsqWeBYcX11e-3" value="" style="rounded=0;whiteSpace=wrap;html=1;" vertex="1" parent="1">
          <mxGeometry x="430" y="720" width="440" height="200" as="geometry" />
        </mxCell>
        <mxCell id="Ga8FxlPgCsqWeBYcX11e-6" value="&lt;font style=&quot;font-size: 19px;&quot;&gt;Kubenetes&lt;/font&gt;" style="text;html=1;align=center;verticalAlign=middle;whiteSpace=wrap;rounded=0;fontSize=14;" vertex="1" parent="1">
          <mxGeometry x="410" y="680" width="140" height="50" as="geometry" />
        </mxCell>
        <mxCell id="Ga8FxlPgCsqWeBYcX11e-11" style="edgeStyle=orthogonalEdgeStyle;rounded=0;orthogonalLoop=1;jettySize=auto;html=1;exitX=0;exitY=0.5;exitDx=0;exitDy=0;entryX=1;entryY=0.5;entryDx=0;entryDy=0;" edge="1" parent="1" source="Ga8FxlPgCsqWeBYcX11e-7" target="Ga8FxlPgCsqWeBYcX11e-10">
          <mxGeometry relative="1" as="geometry" />
        </mxCell>
        <mxCell id="Ga8FxlPgCsqWeBYcX11e-7" value="gost-tunnel" style="rounded=0;whiteSpace=wrap;html=1;" vertex="1" parent="1">
          <mxGeometry x="450" y="750" width="120" height="60" as="geometry" />
        </mxCell>
        <mxCell id="Ga8FxlPgCsqWeBYcX11e-9" style="edgeStyle=orthogonalEdgeStyle;rounded=0;orthogonalLoop=1;jettySize=auto;html=1;exitX=0;exitY=0.5;exitDx=0;exitDy=0;entryX=1;entryY=0.5;entryDx=0;entryDy=0;" edge="1" parent="1" source="Ga8FxlPgCsqWeBYcX11e-8" target="Ga8FxlPgCsqWeBYcX11e-7">
          <mxGeometry relative="1" as="geometry" />
        </mxCell>
        <mxCell id="Ga8FxlPgCsqWeBYcX11e-8" value="srv-concentrator" style="rounded=0;whiteSpace=wrap;html=1;" vertex="1" parent="1">
          <mxGeometry x="630" y="750" width="120" height="60" as="geometry" />
        </mxCell>
        <mxCell id="Ga8FxlPgCsqWeBYcX11e-10" value="РФМ" style="rounded=0;whiteSpace=wrap;html=1;" vertex="1" parent="1">
          <mxGeometry x="250" y="750" width="120" height="60" as="geometry" />
        </mxCell>
        <mxCell id="Ga8FxlPgCsqWeBYcX11e-12" value="AMQ" style="shape=cylinder3;whiteSpace=wrap;html=1;boundedLbl=1;backgroundOutline=1;size=15;" vertex="1" parent="1">
          <mxGeometry x="890" y="680" width="70" height="105" as="geometry" />
        </mxCell>
        <mxCell id="Ga8FxlPgCsqWeBYcX11e-14" value="WebDav" style="shape=cube;whiteSpace=wrap;html=1;boundedLbl=1;backgroundOutline=1;darkOpacity=0.05;darkOpacity2=0.1;" vertex="1" parent="1">
          <mxGeometry x="640" y="940" width="120" height="80" as="geometry" />
        </mxCell>
        <mxCell id="Ga8FxlPgCsqWeBYcX11e-15" value="FTP" style="shape=cube;whiteSpace=wrap;html=1;boundedLbl=1;backgroundOutline=1;darkOpacity=0.05;darkOpacity2=0.1;" vertex="1" parent="1">
          <mxGeometry x="460" y="940" width="120" height="80" as="geometry" />
        </mxCell>
        <mxCell id="Ga8FxlPgCsqWeBYcX11e-16" style="edgeStyle=orthogonalEdgeStyle;rounded=0;orthogonalLoop=1;jettySize=auto;html=1;exitX=0.5;exitY=1;exitDx=0;exitDy=0;entryX=0;entryY=0;entryDx=50;entryDy=0;entryPerimeter=0;" edge="1" parent="1" source="Ga8FxlPgCsqWeBYcX11e-8" target="Ga8FxlPgCsqWeBYcX11e-14">
          <mxGeometry relative="1" as="geometry" />
        </mxCell>
        <mxCell id="Ga8FxlPgCsqWeBYcX11e-17" style="edgeStyle=orthogonalEdgeStyle;rounded=0;orthogonalLoop=1;jettySize=auto;html=1;exitX=0.25;exitY=1;exitDx=0;exitDy=0;entryX=0;entryY=0;entryDx=50;entryDy=0;entryPerimeter=0;" edge="1" parent="1" source="Ga8FxlPgCsqWeBYcX11e-8" target="Ga8FxlPgCsqWeBYcX11e-15">
          <mxGeometry relative="1" as="geometry" />
        </mxCell>
        <mxCell id="Ga8FxlPgCsqWeBYcX11e-18" style="edgeStyle=orthogonalEdgeStyle;rounded=0;orthogonalLoop=1;jettySize=auto;html=1;exitX=1;exitY=0.5;exitDx=0;exitDy=0;entryX=0;entryY=0.5;entryDx=0;entryDy=0;entryPerimeter=0;" edge="1" parent="1" source="Ga8FxlPgCsqWeBYcX11e-8" target="Ga8FxlPgCsqWeBYcX11e-12">
          <mxGeometry relative="1" as="geometry" />
        </mxCell>
        <mxCell id="Ga8FxlPgCsqWeBYcX11e-20" value="srv-concentrator" style="rounded=0;whiteSpace=wrap;html=1;" vertex="1" parent="1">
          <mxGeometry x="710" y="850" width="120" height="60" as="geometry" />
        </mxCell>
        <mxCell id="Ga8FxlPgCsqWeBYcX11e-21" value="УФЭ" style="shape=umlActor;verticalLabelPosition=bottom;verticalAlign=top;html=1;outlineConnect=0;" vertex="1" parent="1">
          <mxGeometry x="515" y="1070" width="30" height="60" as="geometry" />
        </mxCell>
        <mxCell id="Ga8FxlPgCsqWeBYcX11e-22" style="edgeStyle=orthogonalEdgeStyle;rounded=0;orthogonalLoop=1;jettySize=auto;html=1;exitX=0.5;exitY=0;exitDx=0;exitDy=0;exitPerimeter=0;entryX=0;entryY=0;entryDx=70;entryDy=80;entryPerimeter=0;" edge="1" parent="1" source="Ga8FxlPgCsqWeBYcX11e-21" target="Ga8FxlPgCsqWeBYcX11e-15">
          <mxGeometry relative="1" as="geometry" />
        </mxCell>
        <mxCell id="Ga8FxlPgCsqWeBYcX11e-24" style="edgeStyle=orthogonalEdgeStyle;rounded=0;orthogonalLoop=1;jettySize=auto;html=1;exitX=1;exitY=0.75;exitDx=0;exitDy=0;entryX=-0.034;entryY=0.43;entryDx=0;entryDy=0;entryPerimeter=0;" edge="1" parent="1" source="Ga8FxlPgCsqWeBYcX11e-8" target="Ga8FxlPgCsqWeBYcX11e-25">
          <mxGeometry relative="1" as="geometry">
            <mxPoint x="890" y="840" as="targetPoint" />
          </mxGeometry>
        </mxCell>
        <mxCell id="Ga8FxlPgCsqWeBYcX11e-25" value="Kafka" style="shape=cylinder3;whiteSpace=wrap;html=1;boundedLbl=1;backgroundOutline=1;size=15;" vertex="1" parent="1">
          <mxGeometry x="890" y="800" width="70" height="105" as="geometry" />
        </mxCell>
      </root>
    </mxGraphModel>
  </diagram>
</mxfile>
